<?xml version="1.0" encoding="UTF-8"?>
<svg id="Layer_1" data-name="Layer 1" xmlns="http://www.w3.org/2000/svg" viewBox="0 0 200 200">
  <defs>
    <style>
      .cls-1 {
        fill: #0f9482;
      }

      .cls-2 {
        fill: none;
      }
    </style>
  </defs>
  <path class="cls-2" d="M116.89,178.13c1.67-2.31,2.67-5.13,2.67-8.19V43.94c0-7.72-6.28-14-14-14H37.55c-7.72,0-14,6.28-14,14v126c0,7.72,6.28,14,14,14H105.55c.18,0,.35-.02,.53-.03,4.44-.17,8.36-2.41,10.81-5.79Z"/>
  <path class="cls-2" d="M165.49,31.18l-66.37-14.79c-5.65-1.26-11.29,1.11-14.45,5.55h20.89c12.13,0,22,9.87,22,22v126c0,3.61-.88,7.01-2.43,10.02l6.87,1.53c7.53,1.68,15.03-3.09,16.71-10.62l27.4-122.98c1.68-7.54-3.09-15.03-10.62-16.71Z"/>
  <path class="cls-1" d="M167.23,23.37L100.85,8.58c-10.69-2.38-21.32,3.49-25.23,13.36H37.55c-12.13,0-22,9.87-22,22v126c0,12.13,9.87,22,22,22H105.55c5.31,0,10.18-1.89,13.98-5.03l10.72,2.39c1.6,.36,3.19,.53,4.77,.53,10.08,0,19.21-6.98,21.49-17.22l27.4-122.98c2.64-11.84-4.85-23.62-16.69-26.26Zm-61.67,160.57H37.55c-7.72,0-14-6.28-14-14V43.94c0-7.72,6.28-14,14-14H105.55c7.72,0,14,6.28,14,14v126c0,3.06-1,5.88-2.67,8.19-2.45,3.38-6.36,5.62-10.81,5.79-.18,0-.35,.03-.53,.03ZM176.11,47.89l-27.4,122.98c-1.68,7.53-9.18,12.3-16.71,10.62l-6.87-1.53c1.55-3.01,2.43-6.41,2.43-10.02V43.94c0-12.13-9.87-22-22-22h-20.89c3.17-4.44,8.8-6.81,14.45-5.55l66.37,14.79c7.53,1.68,12.3,9.17,10.62,16.71Z"/>
</svg>